{"glyphs":{"0":{"ha":817,"x_min":null,"x_max":null,"o":"m 699 671 b 648 835 689 732 672 787 b 554 952 624 883 593 922 b 408 996 515 982 466 996 b 261 952 349 996 301 982 b 167 835 222 922 191 883 b 117 671 144 787 127 732 b 103 484 108 610 103 547 b 117 298 103 421 108 359 b 167 135 127 237 144 183 b 261 19 191 87 222 48 b 408 -25 301 -11 349 -25 b 554 19 466 -25 515 -11 b 648 135 593 48 624 87 b 699 298 672 183 689 237 b 714 484 709 359 714 421 b 699 671 714 547 709 610 z m 609 336 b 575 199 602 286 591 240 b 510 99 559 159 538 125 b 408 60 483 73 449 60 b 305 99 367 60 332 73 b 240 199 278 125 256 159 b 207 336 224 240 213 286 b 198 484 201 386 198 436 b 207 633 198 533 201 582 b 240 771 213 684 224 730 b 305 873 256 812 278 846 b 408 913 332 899 367 913 b 510 873 449 913 483 899 b 575 771 538 846 559 812 b 609 633 591 730 602 684 b 619 484 616 582 619 533 b 609 336 619 436 616 386 z "},"1":{"ha":500,"x_min":null,"x_max":null,"o":"m 340 972 l 340 972 b 293 924 314 972 293 951 l 293 849 l 293 850 l 293 47 b 340 0 293 21 314 0 b 388 47 366 0 388 21 l 388 924 b 340 972 388 951 366 972 z m 179 866 l 99 797 b 94 735 80 781 78 754 l 95 734 b 157 729 111 715 139 713 l 237 800 b 251 833 246 808 251 820 b 179 866 251 870 208 890 z "},"2":{"ha":778,"x_min":null,"x_max":null,"o":"m 160 749 b 214 779 183 744 206 757 b 270 864 226 812 245 840 b 396 913 304 896 346 913 b 467 900 421 913 444 908 b 526 863 489 891 509 879 b 567 804 543 847 557 827 b 581 727 576 781 581 756 b 572 663 581 705 578 684 b 547 605 566 643 557 623 b 510 552 536 587 524 569 b 469 505 497 535 483 520 l 179 200 b 210 129 153 173 172 129 b 240 142 221 129 232 133 l 524 435 b 582 499 545 456 564 477 b 631 567 601 520 617 543 b 664 642 644 590 655 616 b 676 729 672 669 676 698 b 653 845 676 773 668 811 b 593 929 638 878 618 906 b 504 979 567 951 538 968 b 396 996 470 991 434 996 b 293 979 359 996 325 991 b 208 929 262 967 233 950 b 145 854 183 908 162 883 b 125 813 137 840 130 827 b 160 749 114 785 131 755 z m 639 87 l 130 87 b 86 44 106 87 86 68 l 86 43 b 130 0 86 19 106 0 l 639 0 b 683 43 663 0 683 19 b 639 87 683 68 663 87 z "},"3":{"ha":768,"x_min":null,"x_max":null,"o":"m 613 430 b 479 510 577 472 532 498 l 479 513 b 595 591 525 526 564 552 b 641 736 626 630 641 678 b 619 848 641 778 634 815 b 559 929 604 880 584 907 b 472 979 534 951 505 968 b 367 996 439 991 404 996 b 214 959 309 996 258 984 b 131 886 182 941 154 917 b 145 819 114 864 121 833 b 203 833 165 809 190 814 b 256 884 218 854 236 871 b 361 913 287 903 322 913 b 432 900 386 913 410 908 b 491 863 454 891 474 879 b 532 805 509 847 522 827 b 546 730 541 782 546 758 b 529 648 546 698 540 671 b 482 592 518 625 502 606 b 413 561 462 578 439 568 b 328 552 386 555 358 552 b 287 511 306 552 287 533 l 287 507 b 328 466 287 485 306 466 b 418 456 359 466 389 463 b 496 422 447 449 473 438 b 551 361 519 407 537 387 b 571 269 564 336 571 305 b 554 181 571 236 565 206 b 509 116 543 155 527 133 b 443 74 490 98 468 84 b 365 60 417 65 392 60 b 239 99 318 60 276 73 b 175 171 212 118 191 142 b 118 192 164 192 139 201 b 94 125 91 182 79 150 b 186 26 118 84 149 51 b 365 -25 237 -8 297 -25 b 481 -5 406 -25 444 -19 b 576 52 517 8 549 27 b 642 144 604 78 626 108 b 666 269 658 181 666 222 b 613 430 666 335 648 388 z "},"4":{"ha":826,"x_min":null,"x_max":null,"o":"m 697 322 l 603 322 l 603 892 b 524 972 603 936 568 972 b 456 934 496 972 470 957 l 94 348 b 83 310 87 336 83 324 l 83 309 b 158 234 83 268 117 234 b 426 234 238 234 361 234 b 470 278 450 234 470 254 b 426 322 470 303 450 322 l 182 322 l 508 861 l 511 861 l 511 46 b 557 0 511 20 532 0 b 603 46 583 0 603 20 l 603 234 l 697 234 b 741 278 721 234 741 254 b 697 322 741 303 721 322 z "},"5":{"ha":761,"x_min":null,"x_max":null,"o":"m 195 884 l 585 884 b 629 928 609 884 629 904 b 585 972 629 952 609 972 l 195 972 b 151 929 171 972 152 953 l 151 929 b 195 884 151 904 171 884 z m 642 424 b 579 521 627 461 606 494 b 483 583 552 548 520 569 b 362 605 446 598 406 605 b 297 600 341 605 319 603 b 233 583 274 596 253 590 l 237 798 b 193 843 238 822 218 843 b 149 799 169 843 149 823 l 145 579 b 236 509 144 530 190 496 b 237 510 237 509 237 510 b 337 524 270 519 304 524 b 429 508 370 524 401 519 b 503 461 458 497 482 481 b 551 387 523 441 540 416 b 569 291 563 359 569 326 b 553 199 569 258 564 227 b 507 125 542 170 527 146 b 438 77 488 105 465 89 b 350 60 411 66 382 60 b 237 96 309 60 271 72 b 180 156 214 112 195 132 b 121 173 168 175 143 183 b 103 105 95 161 86 128 b 184 23 125 72 152 45 b 355 -25 231 -9 288 -25 b 482 0 401 -25 443 -17 b 580 68 520 16 552 39 b 642 171 607 96 627 131 b 664 300 657 210 664 254 b 642 424 664 345 657 386 z "},"6":{"ha":793,"x_min":null,"x_max":null,"o":"m 678 403 b 618 497 664 440 644 471 b 528 558 593 523 563 544 b 415 580 493 573 456 580 b 341 571 391 580 367 577 b 279 547 316 564 279 547 l 498 901 b 459 972 517 932 495 972 b 419 949 442 972 427 963 l 178 545 b 118 421 155 505 135 464 b 93 281 101 378 93 331 b 115 156 93 235 101 194 b 179 60 130 119 152 87 b 275 -3 206 33 238 13 b 397 -25 312 -18 353 -25 b 518 -3 441 -25 481 -18 b 614 60 555 13 587 33 b 678 156 642 87 663 119 b 700 281 693 194 700 235 b 678 403 700 325 693 366 z m 590 192 b 547 122 580 165 566 142 b 481 76 529 103 507 87 b 397 59 456 64 427 59 b 312 76 366 59 338 64 b 246 122 287 87 265 103 b 203 192 228 142 213 165 b 188 281 193 219 188 249 b 203 368 188 312 193 341 b 244 438 212 395 226 419 b 310 484 262 458 284 473 b 397 501 336 495 365 501 b 483 484 428 501 457 495 b 549 438 509 473 531 458 b 591 368 567 419 581 395 b 605 281 600 341 605 312 b 590 192 605 249 600 219 z "},"7":{"ha":707,"x_min":null,"x_max":null,"o":"m 584 972 l 118 972 b 74 928 93 972 74 952 b 118 884 74 904 93 884 l 584 884 b 628 928 608 884 628 904 l 628 928 b 584 972 628 952 608 972 z m 543 843 b 502 816 525 843 509 832 l 173 63 b 214 0 160 33 181 0 l 222 0 b 264 27 240 0 256 10 l 585 780 b 543 843 597 810 576 843 z "},"8":{"ha":800,"x_min":null,"x_max":null,"o":"m 649 422 b 522 515 616 468 573 499 l 522 517 b 580 550 543 525 563 535 b 624 600 597 564 612 581 b 653 665 636 620 646 642 b 664 737 660 688 664 712 b 642 844 664 776 657 812 b 585 926 628 876 609 903 b 501 978 561 948 533 966 b 400 996 468 990 435 996 b 298 978 364 996 330 990 b 214 926 266 966 238 948 b 157 844 190 903 171 876 b 136 737 143 812 136 776 b 146 665 136 712 139 688 b 175 600 153 642 163 620 b 219 550 188 581 202 564 b 277 517 237 535 256 525 l 277 515 b 206 479 251 506 228 494 b 150 422 185 463 166 444 b 113 346 134 399 122 374 b 100 255 104 318 100 288 b 124 139 100 212 108 173 b 190 51 141 105 162 75 b 285 -5 217 27 249 8 b 400 -25 322 -19 360 -25 b 514 -5 439 -25 477 -19 b 609 51 550 8 582 27 b 675 139 637 75 659 105 b 699 255 691 173 699 212 b 649 422 699 321 683 377 z m 241 661 b 228 731 232 682 228 706 b 241 804 228 757 232 781 b 278 861 250 826 262 845 b 332 899 293 877 311 890 b 400 913 352 908 375 913 b 468 899 424 913 447 908 b 522 861 488 890 506 877 b 558 804 537 845 549 826 b 571 731 567 781 571 757 b 558 661 571 706 567 682 b 521 607 549 640 537 622 b 466 570 505 591 487 579 b 400 557 446 561 423 557 b 333 570 376 557 354 561 b 278 607 312 579 294 591 b 241 661 262 622 250 640 z m 590 184 b 548 118 580 158 566 136 b 483 74 530 99 509 85 b 400 59 458 64 430 59 b 316 74 369 59 341 64 b 251 118 291 85 269 99 b 210 184 233 136 219 158 b 195 266 200 209 195 237 b 210 347 195 295 200 322 b 251 412 219 372 233 393 b 316 454 269 430 291 444 b 400 469 341 464 369 469 b 483 454 430 469 458 464 b 548 412 509 444 530 430 b 590 347 566 393 580 372 b 604 266 599 322 604 295 b 590 184 604 237 599 209 z "},"9":{"ha":793,"x_min":null,"x_max":null,"o":"m 676 815 b 613 911 661 853 640 885 b 517 974 586 938 554 959 b 395 996 480 989 439 996 b 274 974 351 996 311 989 b 177 911 237 959 205 938 b 114 815 150 885 129 853 b 92 690 99 778 92 736 b 113 569 92 646 99 606 b 173 474 128 532 148 500 b 264 413 199 448 229 428 b 377 391 299 398 336 391 b 451 401 401 391 425 394 b 513 424 476 407 513 424 l 294 70 b 333 0 275 39 297 0 b 373 22 350 0 365 8 l 614 427 b 674 550 637 466 657 507 b 699 690 690 593 699 640 b 676 815 699 736 691 778 z m 589 603 b 548 533 580 576 566 553 b 482 487 530 513 508 498 b 395 471 456 476 427 471 b 309 487 364 471 335 476 b 243 533 283 498 261 513 b 201 603 225 553 211 576 b 187 690 192 630 187 659 b 202 779 187 722 192 752 b 245 849 212 806 226 829 b 311 896 263 869 285 884 b 395 913 336 907 364 913 b 480 896 426 913 454 907 b 546 849 505 884 527 869 b 589 779 564 829 579 806 b 604 690 599 752 604 722 b 589 603 604 659 599 630 z "},"\u0000":{"ha":0,"x_min":null,"x_max":null,"o":""},"\n":{"ha":0,"x_min":null,"x_max":null,"o":""},"\r":{"ha":0,"x_min":null,"x_max":null,"o":""}," ":{"ha":425,"x_min":null,"x_max":null,"o":""},"(":{"ha":414,"x_min":null,"x_max":null,"o":"m 294 17 b 239 156 273 61 255 107 b 203 307 224 204 212 254 b 190 465 194 359 190 411 b 203 622 190 518 194 570 b 239 774 212 675 224 725 b 294 912 255 822 273 868 b 342 999 309 943 325 972 b 330 1056 354 1018 348 1043 l 329 1056 b 272 1044 310 1069 284 1063 b 218 951 253 1015 235 984 b 158 803 195 905 175 856 b 117 638 140 750 127 695 b 103 465 108 581 103 523 b 117 290 103 405 108 347 b 158 126 127 233 140 179 b 218 -22 175 73 195 24 b 272 -115 235 -55 253 -86 b 329 -127 284 -134 310 -140 l 330 -127 b 342 -70 348 -114 354 -89 b 294 17 325 -43 309 -14 z "},")":{"ha":414,"x_min":null,"x_max":null,"o":"m 297 638 b 256 803 287 695 273 750 b 195 951 239 856 219 905 b 142 1044 178 984 160 1015 b 84 1056 129 1063 103 1068 l 84 1056 b 71 999 65 1043 60 1018 b 119 912 88 972 104 943 b 174 774 141 868 159 822 b 211 622 190 725 202 675 b 224 465 220 570 224 518 b 211 307 224 411 220 359 b 174 156 202 254 190 204 b 119 17 159 107 141 61 b 71 -70 104 -14 88 -43 b 84 -126 60 -89 65 -114 l 84 -127 b 142 -115 103 -139 129 -134 b 195 -22 160 -86 178 -55 b 256 126 219 24 239 73 b 297 290 273 179 287 233 b 311 465 306 347 311 405 b 297 638 311 523 306 581 z "},"*":{"ha":643,"x_min":null,"x_max":null,"o":"m 560 799 l 559 802 b 509 826 551 822 529 833 l 361 776 l 361 933 b 321 973 361 955 343 973 b 282 933 299 973 282 955 l 282 776 l 134 826 b 84 802 113 833 91 822 l 83 799 b 108 748 75 779 87 755 l 255 699 l 159 564 b 166 510 146 547 150 523 l 167 509 b 224 518 185 495 211 499 l 321 654 l 419 518 b 475 509 432 499 457 495 l 476 510 b 484 564 493 523 496 547 l 387 699 l 535 748 b 560 799 556 755 567 779 z "},"+":{"ha":826,"x_min":null,"x_max":null,"o":"m 710 458 l 453 458 l 453 727 b 413 767 453 749 435 767 b 373 727 391 767 373 749 l 373 458 l 116 458 b 76 418 94 458 76 440 l 76 415 b 116 375 76 393 94 375 l 373 375 l 373 106 b 413 66 373 84 391 66 b 453 106 435 66 453 84 l 453 375 l 710 375 b 750 415 732 375 750 393 l 750 418 b 710 458 750 440 732 458 z "},",":{"ha":246,"x_min":null,"x_max":null,"o":"m 143 132 l 129 132 b 93 105 112 132 98 121 l 25 -144 b 61 -190 18 -167 36 -190 b 96 -165 77 -190 91 -180 l 178 84 b 143 132 186 108 168 132 z "},"-":{"ha":413,"x_min":null,"x_max":null,"o":"m 315 373 l 97 373 b 58 334 76 373 58 355 b 97 294 58 312 76 294 l 315 294 b 354 334 336 294 354 312 b 315 373 354 355 336 373 z "},".":{"ha":276,"x_min":null,"x_max":null,"o":"m 189 118 b 138 141 176 133 159 141 b 86 118 117 141 100 133 b 67 66 73 103 67 86 b 86 15 67 47 73 30 b 138 -8 100 0 117 -8 b 189 15 159 -8 176 0 b 209 66 203 30 209 47 b 189 118 209 86 203 103 z "},"/":{"ha":607,"x_min":null,"x_max":null,"o":"m 501 969 b 450 947 481 977 458 967 l 81 26 b 105 -26 72 5 83 -19 l 106 -27 b 156 -4 126 -34 148 -23 l 525 917 b 501 969 533 938 523 962 z "},":":{"ha":304,"x_min":null,"x_max":null,"o":"m 152 503 b 203 526 173 503 190 511 b 223 577 217 541 223 558 b 203 629 223 596 217 614 b 152 651 190 644 173 651 b 100 629 131 651 114 644 b 81 577 87 614 81 596 b 100 526 81 558 87 541 b 152 503 114 511 131 503 z m 152 141 b 100 118 131 141 114 133 b 81 66 87 103 81 86 b 100 15 81 47 87 30 b 152 -8 114 0 131 -8 b 203 15 173 -8 190 0 b 223 66 217 30 223 47 b 203 118 223 86 217 103 b 152 141 190 133 173 141 z "},";":{"ha":300,"x_min":null,"x_max":null,"o":"m 162 132 l 148 132 b 113 105 132 132 117 121 l 44 -144 b 80 -190 38 -167 56 -190 b 115 -165 96 -190 110 -180 l 198 84 b 162 132 206 108 188 132 z m 201 629 b 150 651 188 644 171 651 b 98 629 129 651 111 644 b 78 577 85 614 78 596 b 98 526 78 558 85 541 b 150 503 111 511 129 503 b 201 526 171 503 188 511 b 221 577 214 541 221 558 b 201 629 221 596 214 614 z "},"?":{"ha":678,"x_min":null,"x_max":null,"o":"m 568 851 b 514 927 555 881 536 906 b 432 973 491 947 464 963 b 333 989 401 984 368 989 b 159 928 264 989 206 969 b 81 810 124 897 98 858 b 116 751 73 784 89 756 b 167 781 138 747 160 760 b 213 859 177 811 192 837 b 329 904 243 889 281 904 b 393 893 352 904 373 900 b 445 862 413 886 430 875 b 481 811 460 848 472 831 b 494 742 489 791 494 768 b 472 653 494 706 487 677 b 417 590 457 629 439 608 l 380 555 b 341 516 367 542 354 529 b 307 472 329 503 317 488 b 283 416 297 455 289 437 b 275 347 278 395 275 372 l 275 310 b 321 264 275 285 295 264 b 367 310 346 264 367 285 l 367 327 b 372 391 367 352 369 373 b 389 438 376 408 382 424 b 421 478 397 452 408 466 b 467 521 433 491 449 505 b 515 564 484 536 500 550 b 554 612 530 578 543 594 b 580 671 565 629 573 649 b 589 748 586 693 589 718 b 568 851 589 786 582 820 z m 330 141 b 279 118 309 141 292 133 b 259 66 265 103 259 86 b 279 15 259 47 265 30 b 330 -8 292 0 309 -8 b 382 15 351 -8 368 0 b 401 66 395 30 401 47 b 382 118 401 86 395 103 b 330 141 368 133 351 141 z "},"A":{"ha":908,"x_min":null,"x_max":null,"o":"m 423 786 b 423 817 427 796 427 807 b 345 818 409 852 359 853 l 33 66 b 77 0 20 35 43 0 b 122 30 97 0 114 12 l 193 209 l 247 346 l 247 346 z m 875 67 l 513 945 b 473 972 506 962 490 972 b 433 913 443 972 422 941 l 480 795 l 659 346 l 325 346 b 283 319 307 346 290 336 b 324 255 270 289 292 255 l 694 255 l 785 32 b 829 0 792 13 809 0 b 875 67 864 -1 888 35 z "},"B":{"ha":803,"x_min":null,"x_max":null,"o":"m 154 126 b 202 174 181 126 202 147 l 202 799 b 154 846 202 825 181 846 b 107 799 128 846 107 825 l 107 174 b 154 126 107 147 128 126 z m 671 439 b 521 512 631 480 581 505 l 521 515 b 641 590 571 527 611 552 b 686 724 671 628 686 672 b 659 845 686 772 677 812 b 589 921 641 877 618 902 b 492 961 561 939 528 953 b 385 972 456 968 421 972 l 150 972 b 107 930 126 972 107 953 b 150 887 107 906 126 887 l 367 887 b 454 878 398 887 427 884 b 525 849 481 872 505 862 b 574 796 546 835 562 817 b 591 717 585 774 591 748 b 574 636 591 685 585 658 b 527 583 562 614 546 596 b 463 555 507 570 486 560 b 393 547 439 549 416 547 l 318 547 b 277 506 295 547 277 528 b 318 466 277 484 295 466 l 396 466 b 574 418 473 466 532 450 b 636 275 615 387 636 339 b 615 187 636 241 629 212 b 559 128 601 163 582 143 b 477 95 536 113 508 102 b 379 85 446 89 413 85 l 150 85 b 107 43 126 85 107 66 b 150 0 107 19 126 0 l 384 0 b 528 19 437 0 485 6 b 638 73 571 32 608 50 b 707 159 668 97 691 125 b 731 269 723 192 731 229 b 671 439 731 341 711 397 z "},"C":{"ha":936,"x_min":null,"x_max":null,"o":"m 865 184 b 806 175 846 196 820 193 b 708 98 778 141 745 115 b 555 63 660 75 609 63 b 393 97 495 63 441 75 b 271 190 345 120 305 151 b 194 325 238 229 212 273 b 167 486 176 376 167 430 b 194 648 167 543 176 597 b 271 782 212 699 238 744 b 393 875 305 821 345 852 b 555 909 441 898 495 909 b 708 875 609 909 660 898 b 806 797 745 857 778 831 b 865 789 820 780 846 776 b 875 854 887 803 891 833 b 846 884 866 864 856 874 b 768 943 824 906 798 926 b 671 982 739 959 706 973 b 554 997 635 992 596 997 b 358 958 483 997 418 984 b 204 852 299 933 247 897 b 103 691 161 807 127 753 b 67 486 79 628 67 560 b 103 282 67 412 79 344 b 204 120 127 219 161 165 b 358 14 247 75 299 39 b 554 -25 418 -12 483 -25 b 671 -10 596 -25 635 -20 b 768 30 706 0 739 13 b 846 88 798 46 824 66 b 875 119 856 98 866 108 b 865 184 891 139 887 169 z "},"D":{"ha":972,"x_min":null,"x_max":null,"o":"m 151 129 l 158 129 b 202 173 182 129 202 149 l 202 799 b 158 843 202 824 182 843 l 151 843 b 107 799 127 843 107 824 l 107 173 b 151 129 107 149 127 129 z m 865 698 b 750 851 836 759 797 810 b 592 942 703 891 651 922 b 417 972 533 962 475 972 l 151 972 b 107 928 127 972 107 953 l 107 928 b 151 884 107 904 127 884 l 391 884 b 575 850 461 884 522 873 b 705 760 627 827 671 797 b 782 633 739 723 765 681 b 808 486 799 585 808 536 b 782 339 808 436 799 387 b 705 212 765 292 739 249 b 575 122 671 175 627 145 b 391 88 522 99 461 88 l 151 88 b 107 44 127 88 107 68 b 151 0 107 20 127 0 l 417 0 b 592 30 475 0 533 10 b 750 122 651 50 703 81 b 865 273 797 162 836 213 b 908 486 894 334 908 405 b 865 698 908 567 894 637 z "},"E":{"ha":757,"x_min":null,"x_max":null,"o":"m 290 463 l 614 463 b 657 507 638 463 657 482 l 657 507 b 614 551 657 531 638 551 l 290 551 b 246 507 265 551 246 531 l 246 507 b 290 463 246 482 265 463 z m 661 88 l 290 88 b 246 44 265 88 246 68 b 290 0 246 20 265 0 l 661 0 b 705 44 685 0 705 20 b 661 88 705 68 685 88 z m 290 884 l 645 884 b 689 928 669 884 689 904 l 689 928 b 645 972 689 953 669 972 l 290 972 b 246 928 265 972 246 953 l 246 928 b 290 884 246 904 265 884 z m 161 972 l 154 972 b 110 928 129 972 110 953 l 110 44 b 154 0 110 20 129 0 l 161 0 b 205 44 185 0 205 20 l 205 928 b 161 972 205 953 185 972 z "},"F":{"ha":711,"x_min":null,"x_max":null,"o":"m 205 928 b 161 972 205 953 185 972 l 154 972 b 110 928 129 972 110 953 l 110 44 b 154 0 110 20 129 0 l 161 0 b 205 44 185 0 205 20 l 205 356 l 205 356 l 205 928 z m 629 972 l 290 972 b 246 928 265 972 246 953 l 246 928 b 290 884 246 904 265 884 l 629 884 b 673 928 654 884 673 904 l 673 928 b 629 972 673 953 654 972 z m 596 548 l 290 548 b 246 504 265 548 246 528 b 290 460 246 480 265 460 l 596 460 b 640 504 621 460 640 480 b 596 548 640 528 621 548 z "},"G":{"ha":978,"x_min":null,"x_max":null,"o":"m 536 466 l 536 466 b 580 422 536 441 556 422 l 767 422 l 767 422 l 858 422 b 902 466 882 422 902 441 b 858 509 902 490 882 509 l 580 509 b 536 466 556 509 536 490 z m 855 381 l 854 381 b 807 334 828 381 807 360 l 807 126 b 700 81 780 108 744 93 b 555 63 656 69 608 63 b 393 97 495 63 441 75 b 271 189 345 120 305 151 b 194 324 238 228 212 272 b 167 485 176 375 167 429 b 194 647 167 542 176 596 b 271 782 212 698 238 743 b 393 875 305 821 345 852 b 555 909 441 898 495 909 b 709 880 613 909 665 899 b 764 849 729 871 747 861 b 825 856 783 836 809 839 b 816 927 845 877 841 911 b 749 962 795 940 773 952 b 554 997 694 985 628 997 b 360 958 484 997 420 984 b 206 852 301 933 249 897 b 104 691 162 807 128 753 b 67 486 79 628 67 560 b 103 282 67 412 79 344 b 204 120 127 219 161 165 b 358 14 247 75 299 39 b 554 -25 418 -12 483 -25 b 737 -1 617 -25 678 -17 b 877 55 786 12 833 31 b 902 99 892 64 902 81 l 902 334 b 855 381 902 360 881 381 z "},"H":{"ha":919,"x_min":null,"x_max":null,"o":"m 762 972 b 714 925 736 972 714 951 l 714 48 b 762 0 714 21 736 0 b 809 48 788 0 809 21 l 809 925 b 762 972 809 951 788 972 z m 159 972 l 155 972 b 110 927 130 972 110 952 l 110 45 b 155 0 110 20 130 0 l 159 0 b 205 45 184 0 205 20 l 205 927 b 159 972 205 952 184 972 z m 628 551 l 291 551 b 246 505 266 551 246 530 b 291 460 246 480 266 460 l 628 460 b 673 505 653 460 673 480 b 628 551 673 530 653 551 z "},"I":{"ha":315,"x_min":null,"x_max":null,"o":"m 157 972 b 110 925 131 972 110 951 l 110 48 b 157 0 110 21 131 0 b 205 48 183 0 205 21 l 205 925 b 157 972 205 951 183 972 z "},"J":{"ha":619,"x_min":null,"x_max":null,"o":"m 468 972 l 465 972 b 419 926 439 972 419 952 l 419 288 b 412 204 419 259 416 231 b 385 132 407 177 398 153 b 334 82 372 111 356 94 b 254 63 313 69 286 63 b 152 102 212 63 178 76 b 114 160 135 119 122 138 b 59 187 105 181 81 193 b 29 125 32 179 18 150 b 97 32 43 89 66 58 b 264 -25 141 -6 197 -25 b 390 5 316 -25 357 -15 b 466 80 422 24 448 49 b 504 179 485 110 497 143 b 514 280 511 214 514 248 l 514 926 b 468 972 514 952 493 972 z "},"K":{"ha":783,"x_min":null,"x_max":null,"o":"m 157 972 b 110 925 131 972 110 951 l 110 48 b 157 0 110 21 131 0 b 205 48 183 0 205 21 l 205 925 b 157 972 205 951 183 972 z m 733 86 l 352 493 b 354 568 332 514 333 548 l 701 892 b 670 972 732 921 712 972 b 637 959 658 972 646 967 l 284 612 b 246 522 259 588 246 556 b 278 438 246 491 257 461 l 658 17 b 696 0 668 6 682 0 b 733 86 740 0 763 53 z "},"L":{"ha":658,"x_min":null,"x_max":null,"o":"m 161 972 l 154 972 b 110 928 129 972 110 953 l 110 44 b 154 0 110 20 129 0 l 161 0 b 205 44 185 0 205 20 l 205 928 b 161 972 205 953 185 972 z m 596 88 l 290 88 b 246 44 266 88 246 68 b 290 0 246 20 266 0 l 596 0 b 640 44 621 0 640 20 b 596 88 640 68 621 88 z "},"M":{"ha":1142,"x_min":null,"x_max":null,"o":"m 945 972 b 864 917 909 972 877 950 l 575 172 l 532 61 b 531 21 528 52 525 35 b 570 0 536 7 555 0 b 605 23 586 0 599 9 l 933 845 l 936 845 l 936 48 b 983 0 936 21 957 0 b 1031 48 1010 0 1031 21 l 1031 886 b 945 972 1031 934 992 972 z m 544 207 b 544 238 548 217 548 228 l 276 917 b 196 972 263 951 232 972 b 110 886 148 972 110 934 l 110 48 b 157 0 110 21 131 0 b 205 48 183 0 205 21 l 205 845 l 207 845 l 463 206 b 544 207 478 169 530 170 z "},"N":{"ha":981,"x_min":null,"x_max":null,"o":"m 251 937 b 187 972 237 959 213 972 b 110 895 144 972 110 938 l 110 48 b 157 0 110 21 131 0 b 205 48 183 0 205 21 l 205 836 l 207 836 l 646 162 b 734 189 672 122 734 141 b 726 215 734 198 731 207 z m 822 972 b 775 925 796 972 775 951 l 775 48 b 822 0 775 21 796 0 l 822 0 b 870 48 849 0 870 21 l 870 925 b 822 972 870 951 849 972 z "},"O":{"ha":1108,"x_min":null,"x_max":null,"o":"m 1004 691 b 901 852 979 753 945 807 b 747 958 858 897 806 933 b 623 992 708 975 667 987 b 574 949 597 996 574 976 l 574 948 b 612 905 574 926 591 908 b 715 875 649 900 684 890 b 837 782 763 852 804 821 b 914 647 871 743 896 698 b 940 485 932 596 940 542 b 914 324 940 429 932 375 b 837 189 896 272 871 228 b 715 97 804 151 763 120 b 554 63 667 75 614 63 b 392 97 494 63 440 75 b 270 189 344 120 303 151 b 193 324 236 228 211 272 b 167 485 176 375 167 429 b 193 647 167 542 176 596 b 270 782 211 698 236 743 b 392 875 303 821 344 852 b 495 905 424 890 458 900 b 533 948 517 908 533 926 l 533 949 b 484 992 533 976 510 996 b 360 958 441 987 399 975 b 206 852 301 933 249 897 b 104 691 162 807 128 753 b 67 486 79 628 67 560 b 104 282 67 412 79 344 b 206 120 128 219 162 165 b 360 14 249 75 301 39 b 554 -25 420 -12 484 -25 b 747 14 623 -25 688 -12 b 902 120 806 39 858 75 b 1004 282 945 165 979 219 b 1041 486 1028 344 1041 412 b 1004 691 1041 560 1028 628 z "},"P":{"ha":735,"x_min":null,"x_max":null,"o":"m 665 827 b 601 908 650 860 629 887 b 502 956 574 930 540 946 b 372 972 463 967 420 972 l 151 972 b 108 930 127 972 108 953 b 151 887 108 906 127 887 l 364 887 b 533 845 437 887 493 873 b 593 713 573 817 593 773 b 535 581 593 655 573 611 b 364 536 496 551 439 536 l 203 536 l 203 798 b 156 846 203 825 182 846 b 108 798 130 846 108 825 l 108 48 b 156 0 108 21 130 0 b 203 48 182 0 203 21 l 203 452 l 370 452 b 500 468 417 452 461 457 b 600 517 539 479 572 495 b 665 598 628 539 649 566 b 688 713 680 631 688 669 b 665 827 688 757 680 795 z "},"Q":{"ha":1122,"x_min":null,"x_max":null,"o":"m 1029 89 l 791 89 l 791 89 l 574 89 b 383 121 478 89 429 99 b 266 212 337 144 298 174 b 193 342 234 250 210 293 b 167 498 176 392 167 444 b 193 654 167 553 176 605 b 266 785 210 704 234 747 b 383 876 298 823 337 853 b 539 909 429 898 481 909 b 694 876 596 909 648 898 b 812 785 740 853 780 823 b 886 654 844 747 869 704 b 913 498 904 605 913 553 b 886 342 913 444 904 392 b 812 212 869 293 844 250 b 801 200 808 208 805 204 b 831 130 776 173 795 130 b 858 141 841 130 851 134 b 956 264 899 176 931 217 b 1010 499 992 335 1010 413 b 975 699 1010 571 999 638 b 876 856 951 760 918 812 b 726 960 834 901 784 935 b 539 997 668 985 606 997 b 351 960 471 997 409 985 b 201 856 293 935 244 901 b 102 698 159 812 126 759 b 67 498 79 637 67 571 b 102 299 67 426 79 360 b 201 141 126 238 159 185 b 351 37 244 96 293 62 b 539 0 409 12 471 0 l 1029 0 b 1074 45 1054 0 1074 20 b 1029 89 1074 69 1054 89 z "},"R":{"ha":772,"x_min":null,"x_max":null,"o":"m 634 539 b 684 615 655 560 671 586 b 702 712 696 644 702 677 b 679 833 702 760 694 800 b 612 914 663 866 640 893 b 510 958 583 934 549 949 b 383 972 471 967 429 972 l 151 972 b 108 929 127 972 108 953 b 151 887 108 906 127 887 l 372 887 b 469 877 407 887 440 884 b 543 847 498 871 522 861 b 590 793 563 833 579 815 b 607 712 602 771 607 744 b 545 583 607 655 587 611 b 368 539 504 554 445 539 l 203 539 l 203 798 b 156 846 203 824 182 846 b 108 798 130 846 108 824 l 108 47 b 156 0 108 21 130 0 b 203 47 182 0 203 21 l 203 454 l 361 454 b 362 454 354 454 278 454 b 558 487 474 454 529 474 b 634 539 587 500 613 517 z m 506 390 b 466 413 498 404 482 413 b 425 343 430 413 407 374 l 606 25 b 649 0 615 9 632 0 b 692 75 688 0 712 42 z "},"S":{"ha":708,"x_min":null,"x_max":null,"o":"m 149 542 b 230 492 173 521 200 504 b 283 471 244 486 264 478 b 342 497 307 462 333 474 b 315 559 352 522 340 549 b 292 567 307 561 300 564 b 228 602 268 576 247 588 b 182 654 209 616 194 633 b 165 731 171 674 165 699 b 183 812 165 762 171 789 b 230 869 195 834 211 853 b 295 902 249 884 271 895 b 365 913 318 910 342 913 b 479 886 409 913 448 904 b 529 849 498 876 514 864 b 594 846 547 832 575 830 b 594 920 617 866 617 901 b 531 962 576 935 555 949 b 368 997 486 985 432 997 b 264 982 334 997 299 992 b 168 934 229 972 197 956 b 97 850 139 912 115 884 b 70 729 79 816 70 776 b 92 618 70 685 77 648 b 149 542 106 588 126 562 z m 619 376 b 555 454 603 407 581 433 b 466 504 529 474 499 491 b 439 514 457 507 448 511 b 384 490 417 522 393 512 l 381 484 b 406 427 372 461 383 436 l 407 427 b 479 389 434 417 458 404 b 530 333 500 374 517 355 b 549 249 543 311 549 282 b 530 167 549 217 543 190 b 481 108 517 143 501 124 b 415 72 462 92 439 80 b 342 60 390 64 366 60 b 213 95 293 60 250 72 b 155 145 191 110 172 126 b 88 151 138 165 108 167 b 83 76 64 133 61 98 b 105 56 90 69 97 63 b 176 11 127 38 150 23 b 256 -16 201 -1 228 -10 b 341 -25 284 -22 313 -25 b 451 -8 378 -25 414 -19 b 548 43 488 3 520 20 b 618 130 577 65 600 95 b 644 255 635 165 644 207 b 619 376 644 304 636 344 z "},"T":{"ha":746,"x_min":null,"x_max":null,"o":"m 373 843 b 325 796 347 843 325 822 l 325 48 b 373 0 325 21 347 0 b 420 48 399 0 420 21 l 420 796 b 373 843 420 822 399 843 z m 689 972 l 56 972 b 13 928 32 972 13 953 b 56 884 13 904 32 884 l 689 884 b 733 928 713 884 733 904 b 689 972 733 953 713 972 z "},"U":{"ha":897,"x_min":null,"x_max":null,"o":"m 391 68 b 328 90 368 73 347 80 b 250 160 296 108 270 131 b 207 259 230 189 216 222 b 194 374 198 296 194 334 l 194 925 b 146 972 194 951 172 972 b 99 925 120 972 99 951 l 99 363 b 114 234 99 322 104 279 b 169 108 124 189 142 147 b 275 13 195 70 231 38 b 376 -20 304 -3 338 -14 b 428 24 403 -24 428 -3 b 391 68 428 46 412 64 z m 751 972 b 703 925 724 972 703 951 l 703 374 b 690 259 703 334 699 296 b 647 160 681 222 667 189 b 568 90 627 131 601 108 b 505 68 550 80 529 73 b 469 24 484 64 469 46 b 520 -20 469 -3 493 -24 b 621 13 559 -14 592 -3 b 728 108 666 38 702 70 b 783 234 755 147 773 189 b 798 363 793 279 798 322 l 798 925 b 751 972 798 951 777 972 z "},"V":{"ha":840,"x_min":null,"x_max":null,"o":"m 764 972 l 756 972 b 715 943 737 972 721 961 l 397 59 b 438 0 386 30 408 0 b 480 29 457 0 473 12 l 805 913 b 764 972 815 942 794 972 z m 393 200 l 126 942 b 83 972 120 960 102 972 l 78 972 b 35 911 46 972 24 941 l 307 169 b 393 169 321 129 378 129 b 393 200 396 179 396 190 z "},"W":{"ha":1293,"x_min":null,"x_max":null,"o":"m 625 972 b 582 940 605 972 587 959 l 357 136 l 355 136 l 133 937 b 87 972 128 958 109 972 b 41 911 55 972 32 942 l 284 53 b 355 0 293 22 322 0 b 425 53 387 0 416 22 l 668 916 b 625 972 676 944 654 972 z m 1206 972 b 1159 937 1184 972 1165 958 b 941 136 1116 778 941 136 l 938 136 l 759 776 b 671 776 747 820 684 820 b 671 751 669 768 669 759 l 868 53 b 938 0 876 22 905 0 b 1009 53 971 0 1000 22 b 1252 911 1056 220 1202 734 b 1206 972 1261 942 1238 972 z "},"X":{"ha":800,"x_min":null,"x_max":null,"o":"m 683 972 b 643 951 667 972 652 964 l 402 579 l 161 950 b 120 972 152 964 136 972 b 79 896 81 972 57 928 l 340 511 l 49 77 b 90 0 27 44 50 0 b 131 22 106 0 121 8 l 721 899 b 683 972 742 930 720 972 z m 752 76 l 520 421 b 446 424 502 447 465 448 b 444 371 434 408 433 387 l 670 22 b 711 0 679 8 695 0 b 752 76 751 0 774 44 z "},"Y":{"ha":763,"x_min":null,"x_max":null,"o":"m 693 972 b 653 950 677 972 662 964 l 342 429 b 333 397 336 419 333 408 l 333 48 b 380 0 333 21 354 0 b 428 48 407 0 428 21 l 428 405 b 435 431 428 414 430 423 l 732 901 b 693 972 752 932 730 972 z m 346 519 b 346 564 354 533 354 550 l 116 948 b 74 972 107 963 91 972 b 31 896 34 972 10 929 l 270 518 b 346 519 288 490 329 490 z "},"Z":{"ha":735,"x_min":null,"x_max":null,"o":"m 89 884 l 652 884 b 696 928 676 884 696 904 l 696 928 b 652 972 696 953 676 972 l 89 972 b 45 928 65 972 45 953 b 89 884 45 904 65 884 z m 535 822 l 113 204 b 153 129 92 172 114 129 l 154 129 b 193 150 169 129 184 137 l 613 769 b 574 843 635 800 612 843 b 535 822 558 843 544 835 z m 660 88 l 75 88 b 31 44 50 88 31 68 l 31 44 b 75 0 31 20 50 0 l 660 0 b 704 44 684 0 704 20 b 660 88 704 68 684 88 z "},"a":{"ha":908,"x_min":null,"x_max":null,"o":"m 423 786 b 423 817 427 796 427 807 b 345 818 409 852 359 853 l 33 66 b 77 0 20 35 43 0 b 122 30 97 0 114 12 l 193 209 l 247 346 l 247 346 z m 875 67 l 513 945 b 473 972 506 962 490 972 b 433 913 443 972 422 941 l 480 795 l 659 346 l 325 346 b 283 319 307 346 290 336 b 324 255 270 289 292 255 l 694 255 l 785 32 b 829 0 792 13 809 0 b 875 67 864 -1 888 35 z "},"b":{"ha":803,"x_min":null,"x_max":null,"o":"m 154 126 b 202 174 181 126 202 147 l 202 799 b 154 846 202 825 181 846 b 107 799 128 846 107 825 l 107 174 b 154 126 107 147 128 126 z m 671 439 b 521 512 631 480 581 505 l 521 515 b 641 590 571 527 611 552 b 686 724 671 628 686 672 b 659 845 686 772 677 812 b 589 921 641 877 618 902 b 492 961 561 939 528 953 b 385 972 456 968 421 972 l 150 972 b 107 930 126 972 107 953 b 150 887 107 906 126 887 l 367 887 b 454 878 398 887 427 884 b 525 849 481 872 505 862 b 574 796 546 835 562 817 b 591 717 585 774 591 748 b 574 636 591 685 585 658 b 527 583 562 614 546 596 b 463 555 507 570 486 560 b 393 547 439 549 416 547 l 318 547 b 277 506 295 547 277 528 b 318 466 277 484 295 466 l 396 466 b 574 418 473 466 532 450 b 636 275 615 387 636 339 b 615 187 636 241 629 212 b 559 128 601 163 582 143 b 477 95 536 113 508 102 b 379 85 446 89 413 85 l 150 85 b 107 43 126 85 107 66 b 150 0 107 19 126 0 l 384 0 b 528 19 437 0 485 6 b 638 73 571 32 608 50 b 707 159 668 97 691 125 b 731 269 723 192 731 229 b 671 439 731 341 711 397 z "},"c":{"ha":936,"x_min":null,"x_max":null,"o":"m 865 184 b 806 175 846 196 820 193 b 708 98 778 141 745 115 b 555 63 660 75 609 63 b 393 97 495 63 441 75 b 271 190 345 120 305 151 b 194 325 238 229 212 273 b 167 486 176 376 167 430 b 194 648 167 543 176 597 b 271 782 212 699 238 744 b 393 875 305 821 345 852 b 555 909 441 898 495 909 b 708 875 609 909 660 898 b 806 797 745 857 778 831 b 865 789 820 780 846 776 b 875 854 887 803 891 833 b 846 884 866 864 856 874 b 768 943 824 906 798 926 b 671 982 739 959 706 973 b 554 997 635 992 596 997 b 358 958 483 997 418 984 b 204 852 299 933 247 897 b 103 691 161 807 127 753 b 67 486 79 628 67 560 b 103 282 67 412 79 344 b 204 120 127 219 161 165 b 358 14 247 75 299 39 b 554 -25 418 -12 483 -25 b 671 -10 596 -25 635 -20 b 768 30 706 0 739 13 b 846 88 798 46 824 66 b 875 119 856 98 866 108 b 865 184 891 139 887 169 z "},"d":{"ha":972,"x_min":null,"x_max":null,"o":"m 151 129 l 158 129 b 202 173 182 129 202 149 l 202 799 b 158 843 202 824 182 843 l 151 843 b 107 799 127 843 107 824 l 107 173 b 151 129 107 149 127 129 z m 865 698 b 750 851 836 759 797 810 b 592 942 703 891 651 922 b 417 972 533 962 475 972 l 151 972 b 107 928 127 972 107 953 l 107 928 b 151 884 107 904 127 884 l 391 884 b 575 850 461 884 522 873 b 705 760 627 827 671 797 b 782 633 739 723 765 681 b 808 486 799 585 808 536 b 782 339 808 436 799 387 b 705 212 765 292 739 249 b 575 122 671 175 627 145 b 391 88 522 99 461 88 l 151 88 b 107 44 127 88 107 68 b 151 0 107 20 127 0 l 417 0 b 592 30 475 0 533 10 b 750 122 651 50 703 81 b 865 273 797 162 836 213 b 908 486 894 334 908 405 b 865 698 908 567 894 637 z "},"e":{"ha":757,"x_min":null,"x_max":null,"o":"m 290 463 l 614 463 b 657 507 638 463 657 482 l 657 507 b 614 551 657 531 638 551 l 290 551 b 246 507 265 551 246 531 l 246 507 b 290 463 246 482 265 463 z m 661 88 l 290 88 b 246 44 265 88 246 68 b 290 0 246 20 265 0 l 661 0 b 705 44 685 0 705 20 b 661 88 705 68 685 88 z m 290 884 l 645 884 b 689 928 669 884 689 904 l 689 928 b 645 972 689 953 669 972 l 290 972 b 246 928 265 972 246 953 l 246 928 b 290 884 246 904 265 884 z m 161 972 l 154 972 b 110 928 129 972 110 953 l 110 44 b 154 0 110 20 129 0 l 161 0 b 205 44 185 0 205 20 l 205 928 b 161 972 205 953 185 972 z "},"f":{"ha":711,"x_min":null,"x_max":null,"o":"m 205 928 b 161 972 205 953 185 972 l 154 972 b 110 928 129 972 110 953 l 110 44 b 154 0 110 20 129 0 l 161 0 b 205 44 185 0 205 20 l 205 356 l 205 356 l 205 928 z m 629 972 l 290 972 b 246 928 265 972 246 953 l 246 928 b 290 884 246 904 265 884 l 629 884 b 673 928 654 884 673 904 l 673 928 b 629 972 673 953 654 972 z m 596 548 l 290 548 b 246 504 265 548 246 528 b 290 460 246 480 265 460 l 596 460 b 640 504 621 460 640 480 b 596 548 640 528 621 548 z "},"g":{"ha":978,"x_min":null,"x_max":null,"o":"m 536 466 l 536 466 b 580 422 536 441 556 422 l 767 422 l 767 422 l 858 422 b 902 466 882 422 902 441 b 858 509 902 490 882 509 l 580 509 b 536 466 556 509 536 490 z m 855 381 l 854 381 b 807 334 828 381 807 360 l 807 126 b 700 81 780 108 744 93 b 555 63 656 69 608 63 b 393 97 495 63 441 75 b 271 189 345 120 305 151 b 194 324 238 228 212 272 b 167 485 176 375 167 429 b 194 647 167 542 176 596 b 271 782 212 698 238 743 b 393 875 305 821 345 852 b 555 909 441 898 495 909 b 709 880 613 909 665 899 b 764 849 729 871 747 861 b 825 856 783 836 809 839 b 816 927 845 877 841 911 b 749 962 795 940 773 952 b 554 997 694 985 628 997 b 360 958 484 997 420 984 b 206 852 301 933 249 897 b 104 691 162 807 128 753 b 67 486 79 628 67 560 b 103 282 67 412 79 344 b 204 120 127 219 161 165 b 358 14 247 75 299 39 b 554 -25 418 -12 483 -25 b 737 -1 617 -25 678 -17 b 877 55 786 12 833 31 b 902 99 892 64 902 81 l 902 334 b 855 381 902 360 881 381 z "},"h":{"ha":919,"x_min":null,"x_max":null,"o":"m 762 972 b 714 925 736 972 714 951 l 714 48 b 762 0 714 21 736 0 b 809 48 788 0 809 21 l 809 925 b 762 972 809 951 788 972 z m 159 972 l 155 972 b 110 927 130 972 110 952 l 110 45 b 155 0 110 20 130 0 l 159 0 b 205 45 184 0 205 20 l 205 927 b 159 972 205 952 184 972 z m 628 551 l 291 551 b 246 505 266 551 246 530 b 291 460 246 480 266 460 l 628 460 b 673 505 653 460 673 480 b 628 551 673 530 653 551 z "},"i":{"ha":315,"x_min":null,"x_max":null,"o":"m 157 972 b 110 925 131 972 110 951 l 110 48 b 157 0 110 21 131 0 b 205 48 183 0 205 21 l 205 925 b 157 972 205 951 183 972 z "},"j":{"ha":619,"x_min":null,"x_max":null,"o":"m 468 972 l 465 972 b 419 926 439 972 419 952 l 419 288 b 412 204 419 259 416 231 b 385 132 407 177 398 153 b 334 82 372 111 356 94 b 254 63 313 69 286 63 b 152 102 212 63 178 76 b 114 160 135 119 122 138 b 59 187 105 181 81 193 b 29 125 32 179 18 150 b 97 32 43 89 66 58 b 264 -25 141 -6 197 -25 b 390 5 316 -25 357 -15 b 466 80 422 24 448 49 b 504 179 485 110 497 143 b 514 280 511 214 514 248 l 514 926 b 468 972 514 952 493 972 z "},"k":{"ha":783,"x_min":null,"x_max":null,"o":"m 157 972 b 110 925 131 972 110 951 l 110 48 b 157 0 110 21 131 0 b 205 48 183 0 205 21 l 205 925 b 157 972 205 951 183 972 z m 733 86 l 352 493 b 354 568 332 514 333 548 l 701 892 b 670 972 732 921 712 972 b 637 959 658 972 646 967 l 284 612 b 246 522 259 588 246 556 b 278 438 246 491 257 461 l 658 17 b 696 0 668 6 682 0 b 733 86 740 0 763 53 z "},"l":{"ha":658,"x_min":null,"x_max":null,"o":"m 161 972 l 154 972 b 110 928 129 972 110 953 l 110 44 b 154 0 110 20 129 0 l 161 0 b 205 44 185 0 205 20 l 205 928 b 161 972 205 953 185 972 z m 596 88 l 290 88 b 246 44 266 88 246 68 b 290 0 246 20 266 0 l 596 0 b 640 44 621 0 640 20 b 596 88 640 68 621 88 z "},"m":{"ha":1142,"x_min":null,"x_max":null,"o":"m 945 972 b 864 917 909 972 877 950 l 575 172 l 532 61 b 531 21 528 52 525 35 b 570 0 536 7 555 0 b 605 23 586 0 599 9 l 933 845 l 936 845 l 936 48 b 983 0 936 21 957 0 b 1031 48 1010 0 1031 21 l 1031 886 b 945 972 1031 934 992 972 z m 544 207 b 544 238 548 217 548 228 l 276 917 b 196 972 263 951 232 972 b 110 886 148 972 110 934 l 110 48 b 157 0 110 21 131 0 b 205 48 183 0 205 21 l 205 845 l 207 845 l 463 206 b 544 207 478 169 530 170 z "},"n":{"ha":981,"x_min":null,"x_max":null,"o":"m 251 937 b 187 972 237 959 213 972 b 110 895 144 972 110 938 l 110 48 b 157 0 110 21 131 0 b 205 48 183 0 205 21 l 205 836 l 207 836 l 646 162 b 734 189 672 122 734 141 b 726 215 734 198 731 207 z m 822 972 b 775 925 796 972 775 951 l 775 48 b 822 0 775 21 796 0 l 822 0 b 870 48 849 0 870 21 l 870 925 b 822 972 870 951 849 972 z "},"o":{"ha":1108,"x_min":null,"x_max":null,"o":"m 1004 691 b 901 852 979 753 945 807 b 747 958 858 897 806 933 b 623 992 708 975 667 987 b 574 949 597 996 574 976 l 574 948 b 612 905 574 926 591 908 b 715 875 649 900 684 890 b 837 782 763 852 804 821 b 914 647 871 743 896 698 b 940 485 932 596 940 542 b 914 324 940 429 932 375 b 837 189 896 272 871 228 b 715 97 804 151 763 120 b 554 63 667 75 614 63 b 392 97 494 63 440 75 b 270 189 344 120 303 151 b 193 324 236 228 211 272 b 167 485 176 375 167 429 b 193 647 167 542 176 596 b 270 782 211 698 236 743 b 392 875 303 821 344 852 b 495 905 424 890 458 900 b 533 948 517 908 533 926 l 533 949 b 484 992 533 976 510 996 b 360 958 441 987 399 975 b 206 852 301 933 249 897 b 104 691 162 807 128 753 b 67 486 79 628 67 560 b 104 282 67 412 79 344 b 206 120 128 219 162 165 b 360 14 249 75 301 39 b 554 -25 420 -12 484 -25 b 747 14 623 -25 688 -12 b 902 120 806 39 858 75 b 1004 282 945 165 979 219 b 1041 486 1028 344 1041 412 b 1004 691 1041 560 1028 628 z "},"p":{"ha":735,"x_min":null,"x_max":null,"o":"m 665 827 b 601 908 650 860 629 887 b 502 956 574 930 540 946 b 372 972 463 967 420 972 l 151 972 b 108 930 127 972 108 953 b 151 887 108 906 127 887 l 364 887 b 533 845 437 887 493 873 b 593 713 573 817 593 773 b 535 581 593 655 573 611 b 364 536 496 551 439 536 l 203 536 l 203 798 b 156 846 203 825 182 846 b 108 798 130 846 108 825 l 108 48 b 156 0 108 21 130 0 b 203 48 182 0 203 21 l 203 452 l 370 452 b 500 468 417 452 461 457 b 600 517 539 479 572 495 b 665 598 628 539 649 566 b 688 713 680 631 688 669 b 665 827 688 757 680 795 z "},"q":{"ha":1122,"x_min":null,"x_max":null,"o":"m 1029 89 l 791 89 l 791 89 l 574 89 b 383 121 478 89 429 99 b 266 212 337 144 298 174 b 193 342 234 250 210 293 b 167 498 176 392 167 444 b 193 654 167 553 176 605 b 266 785 210 704 234 747 b 383 876 298 823 337 853 b 539 909 429 898 481 909 b 694 876 596 909 648 898 b 812 785 740 853 780 823 b 886 654 844 747 869 704 b 913 498 904 605 913 553 b 886 342 913 444 904 392 b 812 212 869 293 844 250 b 801 200 808 208 805 204 b 831 130 776 173 795 130 b 858 141 841 130 851 134 b 956 264 899 176 931 217 b 1010 499 992 335 1010 413 b 975 699 1010 571 999 638 b 876 856 951 760 918 812 b 726 960 834 901 784 935 b 539 997 668 985 606 997 b 351 960 471 997 409 985 b 201 856 293 935 244 901 b 102 698 159 812 126 759 b 67 498 79 637 67 571 b 102 299 67 426 79 360 b 201 141 126 238 159 185 b 351 37 244 96 293 62 b 539 0 409 12 471 0 l 1029 0 b 1074 45 1054 0 1074 20 b 1029 89 1074 69 1054 89 z "},"r":{"ha":772,"x_min":null,"x_max":null,"o":"m 634 539 b 684 615 655 560 671 586 b 702 712 696 644 702 677 b 679 833 702 760 694 800 b 612 914 663 866 640 893 b 510 958 583 934 549 949 b 383 972 471 967 429 972 l 151 972 b 108 929 127 972 108 953 b 151 887 108 906 127 887 l 372 887 b 469 877 407 887 440 884 b 543 847 498 871 522 861 b 590 793 563 833 579 815 b 607 712 602 771 607 744 b 545 583 607 655 587 611 b 368 539 504 554 445 539 l 203 539 l 203 798 b 156 846 203 824 182 846 b 108 798 130 846 108 824 l 108 47 b 156 0 108 21 130 0 b 203 47 182 0 203 21 l 203 454 l 361 454 b 362 454 354 454 278 454 b 558 487 474 454 529 474 b 634 539 587 500 613 517 z m 506 390 b 466 413 498 404 482 413 b 425 343 430 413 407 374 l 606 25 b 649 0 615 9 632 0 b 692 75 688 0 712 42 z "},"s":{"ha":708,"x_min":null,"x_max":null,"o":"m 149 542 b 230 492 173 521 200 504 b 283 471 244 486 264 478 b 342 497 307 462 333 474 b 315 559 352 522 340 549 b 292 567 307 561 300 564 b 228 602 268 576 247 588 b 182 654 209 616 194 633 b 165 731 171 674 165 699 b 183 812 165 762 171 789 b 230 869 195 834 211 853 b 295 902 249 884 271 895 b 365 913 318 910 342 913 b 479 886 409 913 448 904 b 529 849 498 876 514 864 b 594 846 547 832 575 830 b 594 920 617 866 617 901 b 531 962 576 935 555 949 b 368 997 486 985 432 997 b 264 982 334 997 299 992 b 168 934 229 972 197 956 b 97 850 139 912 115 884 b 70 729 79 816 70 776 b 92 618 70 685 77 648 b 149 542 106 588 126 562 z m 619 376 b 555 454 603 407 581 433 b 466 504 529 474 499 491 b 439 514 457 507 448 511 b 384 490 417 522 393 512 l 381 484 b 406 427 372 461 383 436 l 407 427 b 479 389 434 417 458 404 b 530 333 500 374 517 355 b 549 249 543 311 549 282 b 530 167 549 217 543 190 b 481 108 517 143 501 124 b 415 72 462 92 439 80 b 342 60 390 64 366 60 b 213 95 293 60 250 72 b 155 145 191 110 172 126 b 88 151 138 165 108 167 b 83 76 64 133 61 98 b 105 56 90 69 97 63 b 176 11 127 38 150 23 b 256 -16 201 -1 228 -10 b 341 -25 284 -22 313 -25 b 451 -8 378 -25 414 -19 b 548 43 488 3 520 20 b 618 130 577 65 600 95 b 644 255 635 165 644 207 b 619 376 644 304 636 344 z "},"t":{"ha":746,"x_min":null,"x_max":null,"o":"m 373 843 b 325 796 347 843 325 822 l 325 48 b 373 0 325 21 347 0 b 420 48 399 0 420 21 l 420 796 b 373 843 420 822 399 843 z m 689 972 l 56 972 b 13 928 32 972 13 953 b 56 884 13 904 32 884 l 689 884 b 733 928 713 884 733 904 b 689 972 733 953 713 972 z "},"u":{"ha":897,"x_min":null,"x_max":null,"o":"m 391 68 b 328 90 368 73 347 80 b 250 160 296 108 270 131 b 207 259 230 189 216 222 b 194 374 198 296 194 334 l 194 925 b 146 972 194 951 172 972 b 99 925 120 972 99 951 l 99 363 b 114 234 99 322 104 279 b 169 108 124 189 142 147 b 275 13 195 70 231 38 b 376 -20 304 -3 338 -14 b 428 24 403 -24 428 -3 b 391 68 428 46 412 64 z m 751 972 b 703 925 724 972 703 951 l 703 374 b 690 259 703 334 699 296 b 647 160 681 222 667 189 b 568 90 627 131 601 108 b 505 68 550 80 529 73 b 469 24 484 64 469 46 b 520 -20 469 -3 493 -24 b 621 13 559 -14 592 -3 b 728 108 666 38 702 70 b 783 234 755 147 773 189 b 798 363 793 279 798 322 l 798 925 b 751 972 798 951 777 972 z "},"v":{"ha":840,"x_min":null,"x_max":null,"o":"m 764 972 l 756 972 b 715 943 737 972 721 961 l 397 59 b 438 0 386 30 408 0 b 480 29 457 0 473 12 l 805 913 b 764 972 815 942 794 972 z m 393 200 l 126 942 b 83 972 120 960 102 972 l 78 972 b 35 911 46 972 24 941 l 307 169 b 393 169 321 129 378 129 b 393 200 396 179 396 190 z "},"w":{"ha":1293,"x_min":null,"x_max":null,"o":"m 625 972 b 582 940 605 972 587 959 l 357 136 l 355 136 l 133 937 b 87 972 128 958 109 972 b 41 911 55 972 32 942 l 284 53 b 355 0 293 22 322 0 b 425 53 387 0 416 22 l 668 916 b 625 972 676 944 654 972 z m 1206 972 b 1159 937 1184 972 1165 958 b 941 136 1116 778 941 136 l 938 136 l 759 776 b 671 776 747 820 684 820 b 671 751 669 768 669 759 l 868 53 b 938 0 876 22 905 0 b 1009 53 971 0 1000 22 b 1252 911 1056 220 1202 734 b 1206 972 1261 942 1238 972 z "},"x":{"ha":800,"x_min":null,"x_max":null,"o":"m 683 972 b 643 951 667 972 652 964 l 402 579 l 161 950 b 120 972 152 964 136 972 b 79 896 81 972 57 928 l 340 511 l 49 77 b 90 0 27 44 50 0 b 131 22 106 0 121 8 l 721 899 b 683 972 742 930 720 972 z m 752 76 l 520 421 b 446 424 502 447 465 448 b 444 371 434 408 433 387 l 670 22 b 711 0 679 8 695 0 b 752 76 751 0 774 44 z "},"y":{"ha":763,"x_min":null,"x_max":null,"o":"m 693 972 b 653 950 677 972 662 964 l 342 429 b 333 397 336 419 333 408 l 333 48 b 380 0 333 21 354 0 b 428 48 407 0 428 21 l 428 405 b 435 431 428 414 430 423 l 732 901 b 693 972 752 932 730 972 z m 346 519 b 346 564 354 533 354 550 l 116 948 b 74 972 107 963 91 972 b 31 896 34 972 10 929 l 270 518 b 346 519 288 490 329 490 z "},"z":{"ha":735,"x_min":null,"x_max":null,"o":"m 89 884 l 652 884 b 696 928 676 884 696 904 l 696 928 b 652 972 696 953 676 972 l 89 972 b 45 928 65 972 45 953 b 89 884 45 904 65 884 z m 535 822 l 113 204 b 153 129 92 172 114 129 l 154 129 b 193 150 169 129 184 137 l 613 769 b 574 843 635 800 612 843 b 535 822 558 843 544 835 z m 660 88 l 75 88 b 31 44 50 88 31 68 l 31 44 b 75 0 31 20 50 0 l 660 0 b 704 44 684 0 704 20 b 660 88 704 68 684 88 z "}," ":{"ha":425,"x_min":null,"x_max":null,"o":""},"­":{"ha":0,"x_min":null,"x_max":null,"o":""}}}
